<?xml version="1.0" standalone="no"?>
<!DOCTYPE svg PUBLIC "-//W3C//DTD SVG 20010904//EN"
 "http://www.w3.org/TR/2001/REC-SVG-20010904/DTD/svg10.dtd">
<svg version="1.0" xmlns="http://www.w3.org/2000/svg"
 width="600.000000pt" height="600.000000pt" viewBox="0 0 600.000000 600.000000"
 preserveAspectRatio="xMidYMid meet">
<metadata>
Created by potrace 1.11, written by Peter Selinger 2001-2013
</metadata>
<g transform="translate(0.000000,600.000000) scale(0.100000,-0.100000)"
fill="#000000" stroke="none">
<path d="M2755 5866 c-91 -17 -194 -47 -201 -57 -2 -4 -10 -6 -17 -4 -7 2 -28
7 -47 10 -19 3 -51 9 -70 12 -72 13 -388 8 -414 -5 -5 -3 -30 -7 -55 -9 -25
-2 -47 -8 -49 -12 -2 -5 -11 -7 -21 -4 -10 3 -22 0 -25 -6 -4 -5 -13 -8 -21
-4 -8 3 -15 0 -15 -7 0 -6 -4 -9 -9 -6 -8 5 -76 -13 -126 -34 -11 -4 -35 -13
-52 -20 -18 -7 -33 -17 -33 -22 0 -5 -4 -7 -8 -4 -11 7 -92 -33 -92 -45 0 -5
-3 -8 -7 -7 -11 3 -71 -30 -109 -58 -17 -13 -35 -24 -39 -24 -5 0 -18 -8 -29
-17 -20 -17 -20 -17 -7 0 13 16 11 17 -29 12 -94 -12 -196 -40 -252 -71 -14
-8 -33 -14 -41 -14 -9 0 -17 -3 -19 -7 -2 -5 -23 -19 -48 -33 -61 -33 -136
-91 -132 -102 1 -5 -1 -7 -6 -4 -13 8 -146 -130 -137 -143 3 -6 1 -10 -5 -9
-7 2 -29 -21 -49 -51 -22 -30 -53 -60 -72 -70 -19 -9 -48 -25 -64 -37 -17 -11
-38 -24 -48 -27 -11 -4 -15 -12 -11 -18 4 -7 3 -9 -3 -6 -5 4 -32 -14 -59 -38
-27 -24 -53 -44 -57 -45 -5 0 -5 -4 -2 -10 3 -5 0 -10 -8 -10 -16 0 -30 -26
-22 -40 3 -4 -3 -7 -12 -6 -19 1 -114 -133 -108 -152 3 -7 1 -11 -4 -7 -8 5
-61 -92 -65 -119 -1 -6 -4 -15 -8 -21 -27 -46 -59 -337 -37 -350 4 -3 5 -13 3
-23 -3 -9 2 -45 10 -80 8 -34 11 -60 6 -57 -9 6 -23 -72 -15 -86 4 -5 2 -9 -3
-9 -14 0 -12 -114 2 -122 8 -6 8 -8 -1 -8 -13 0 -6 -37 11 -59 8 -11 8 -13 -1
-8 -8 5 -7 -6 2 -38 21 -68 46 -116 58 -108 6 3 7 1 3 -6 -14 -22 134 -191
167 -191 13 0 37 -27 37 -41 0 -24 61 -140 70 -134 5 3 7 0 5 -7 -7 -18 63
-100 77 -92 6 4 8 2 5 -3 -9 -15 29 -47 45 -37 7 4 10 4 6 -1 -4 -4 -3 -14 3
-21 18 -22 180 -96 195 -90 10 4 12 2 8 -6 -5 -7 0 -9 14 -6 12 4 22 3 22 -1
0 -4 6 -8 13 -9 6 0 30 -4 52 -7 22 -4 74 -8 115 -9 l75 -2 20 -74 c11 -41 24
-81 28 -87 5 -7 6 -13 3 -13 -7 0 27 -87 61 -156 14 -30 30 -51 36 -47 6 3 7
1 3 -5 -8 -14 60 -109 124 -171 50 -50 121 -108 127 -103 2 1 11 -6 21 -16 11
-11 33 -25 50 -33 18 -8 32 -17 32 -21 0 -5 9 -8 20 -8 11 0 20 -4 20 -8 0 -9
70 -37 83 -34 4 1 7 -2 7 -7 0 -4 20 -14 45 -21 25 -7 45 -17 45 -21 0 -9 -49
-85 -355 -549 -203 -308 -214 -333 -215 -476 0 -177 102 -344 262 -425 31 -16
78 -34 105 -40 34 -8 306 -12 917 -13 l870 -1 0 -197 1 -198 25 -25 c14 -14
41 -27 60 -30 38 -5 86 15 83 33 -2 7 1 11 6 9 18 -4 101 92 95 111 -5 13 -4
14 4 3 9 -12 13 -12 27 2 9 9 13 22 9 28 -4 7 -3 9 3 6 8 -5 83 66 145 139 22
25 53 98 38 89 -7 -4 -6 1 2 14 13 21 17 21 373 20 393 0 427 3 528 59 183 99
283 327 234 532 -18 76 -18 100 -1 93 7 -2 21 4 32 15 11 11 23 18 26 15 3 -3
8 2 12 11 3 9 13 16 21 16 9 0 13 6 10 14 -4 10 -1 13 7 10 15 -6 112 92 110
111 -1 8 5 11 14 7 11 -4 14 -1 9 12 -4 9 -3 15 3 11 14 -8 78 109 106 194 31
92 45 196 30 212 -6 7 -6 9 -1 6 6 -3 9 11 8 36 0 23 -2 42 -3 42 -1 0 -3 7
-5 16 -2 12 2 15 19 11 19 -5 20 -4 6 14 -11 15 -11 16 0 7 19 -18 40 -16 112
8 110 38 292 179 272 211 -4 6 -3 8 4 4 9 -5 85 102 88 123 0 3 8 24 18 46 9
21 18 46 19 55 2 8 6 21 10 28 5 6 6 16 3 21 -4 5 -2 11 3 13 11 4 23 81 26
165 1 34 10 78 19 98 9 19 14 40 10 47 -4 6 -3 8 3 5 5 -3 17 16 25 44 11 32
12 47 5 42 -7 -4 -7 0 1 9 7 9 14 27 16 40 1 13 6 30 10 37 13 20 17 253 4
245 -7 -5 -7 -1 -1 10 9 17 -13 164 -26 176 -3 3 -6 10 -7 15 -2 27 -28 94
-34 90 -4 -3 -8 1 -7 8 1 34 -4 48 -15 41 -7 -4 -8 -3 -4 5 4 6 -7 35 -24 63
-25 41 -33 65 -35 117 -5 76 -8 98 -18 107 -4 4 -7 16 -7 26 0 45 -112 234
-132 222 -6 -4 -8 -3 -4 4 7 12 -60 78 -75 74 -6 -1 -8 1 -5 6 7 12 -33 44
-46 36 -6 -4 -8 -3 -5 3 4 6 -15 25 -41 42 -45 28 -48 34 -51 75 -1 24 -4 55
-7 68 -3 13 -7 34 -10 48 -9 48 -28 109 -33 105 -4 -2 -7 7 -7 19 -2 27 -40
112 -54 121 -6 4 -8 11 -5 16 4 5 -1 12 -9 15 -9 3 -16 11 -16 18 0 30 -144
201 -160 191 -6 -3 -7 1 -4 9 6 14 -5 21 -29 17 -4 0 -6 4 -5 11 5 22 -222
176 -248 168 -4 -1 -10 3 -13 8 -6 9 -103 45 -153 56 -16 4 -28 13 -28 21 0 8
-4 15 -10 15 -5 0 -10 6 -10 13 0 12 -37 62 -77 104 -13 13 -23 28 -23 33 0 6
-4 10 -8 10 -4 0 -25 16 -45 35 -21 20 -43 33 -49 29 -6 -4 -8 -3 -5 3 5 9
-35 53 -48 53 -2 0 -30 16 -60 35 -31 20 -60 33 -65 30 -6 -3 -10 -2 -10 4 0
9 -70 37 -79 32 -2 -2 -7 1 -10 7 -3 5 -43 19 -89 31 -154 41 -357 35 -517
-15 l-55 -18 -46 32 c-25 18 -50 29 -56 26 -7 -4 -8 -2 -4 4 4 7 2 12 -4 12
-7 0 -25 9 -41 21 -16 11 -37 18 -45 15 -8 -3 -13 -2 -10 3 7 11 -52 33 -65
25 -5 -3 -9 -1 -9 4 0 6 -7 13 -16 16 -9 4 -13 2 -8 -5 3 -6 -4 -4 -17 4 -60
39 -305 57 -434 33z m-145 -50 c0 -2 -8 -10 -17 -17 -16 -13 -17 -12 -4 4 13
16 21 21 21 13z m-605 -216 c3 -5 1 -10 -4 -10 -6 0 -11 5 -11 10 0 6 2 10 4
10 3 0 8 -4 11 -10z m320 0 c3 -5 1 -10 -4 -10 -6 0 -11 5 -11 10 0 6 2 10 4
10 3 0 8 -4 11 -10z m1445 0 c0 -5 -5 -10 -11 -10 -5 0 -7 5 -4 10 3 6 8 10
11 10 2 0 4 -4 4 -10z m675 -240 c3 -5 1 -10 -4 -10 -6 0 -11 5 -11 10 0 6 2
10 4 10 3 0 8 -4 11 -10z m-237 -85 c-3 -3 -9 2 -12 12 -6 14 -5 15 5 6 7 -7
10 -15 7 -18z m-1883 5 c3 -5 1 -10 -4 -10 -6 0 -11 5 -11 10 0 6 2 10 4 10 3
0 8 -4 11 -10z m1602 -5 c0 -8 -4 -12 -9 -9 -5 3 -6 10 -3 15 9 13 12 11 12
-6z m563 5 c0 -5 -2 -10 -4 -10 -3 0 -8 5 -11 10 -3 6 -1 10 4 10 6 0 11 -4
11 -10z m-2803 -155 c0 -8 -4 -12 -9 -9 -5 3 -6 10 -3 15 9 13 12 11 12 -6z
m3038 6 c3 -5 2 -12 -3 -15 -5 -3 -9 1 -9 9 0 17 3 19 12 6z m-955 -11 c0 -5
-5 -10 -11 -10 -5 0 -7 5 -4 10 3 6 8 10 11 10 2 0 4 -4 4 -10z m-110 -76 c0
-8 -19 -13 -24 -6 -3 5 1 9 9 9 8 0 15 -2 15 -3z m1155 -164 c3 -6 -1 -7 -9
-4 -18 7 -21 14 -7 14 6 0 13 -4 16 -10z m-3290 -80 c3 -5 1 -10 -4 -10 -6 0
-11 5 -11 10 0 6 2 10 4 10 3 0 8 -4 11 -10z m815 4 c0 -8 -19 -13 -24 -6 -3
5 1 9 9 9 8 0 15 -2 15 -3z m2230 2 c0 -3 -4 -8 -10 -11 -5 -3 -10 -1 -10 4 0
6 5 11 10 11 6 0 10 -2 10 -4z m-4340 -40 c0 -2 -7 -7 -16 -10 -8 -3 -12 -2
-9 4 6 10 25 14 25 6z m654 -52 c3 -8 2 -12 -4 -9 -6 3 -10 10 -10 16 0 14 7
11 14 -7z m-624 -70 c0 -8 -19 -13 -24 -6 -3 5 1 9 9 9 8 0 15 -2 15 -3z m-15
-153 c3 -5 2 -12 -3 -15 -5 -3 -9 1 -9 9 0 17 3 19 12 6z m325 -5 c0 -3 -4 -8
-10 -11 -5 -3 -10 -1 -10 4 0 6 5 11 10 11 6 0 10 -2 10 -4z m3445 -6 c-3 -5
-12 -10 -18 -10 -7 0 -6 4 3 10 19 12 23 12 15 0z m-3770 -159 c3 -5 2 -12 -3
-15 -5 -3 -9 1 -9 9 0 17 3 19 12 6z m2239 1 c3 -5 -1 -9 -9 -9 -8 0 -12 4 -9
9 3 4 7 8 9 8 2 0 6 -4 9 -8z m-1839 -82 c3 -5 1 -10 -4 -10 -6 0 -11 5 -11
10 0 6 2 10 4 10 3 0 8 -4 11 -10z m3200 -119 c3 -5 2 -12 -3 -15 -5 -3 -9 1
-9 9 0 17 3 19 12 6z m485 -41 c0 -5 -5 -10 -11 -10 -5 0 -7 5 -4 10 3 6 8 10
11 10 2 0 4 -4 4 -10z m557 -75 c0 -8 -4 -12 -9 -9 -5 3 -6 10 -3 15 9 13 12
11 12 -6z m-4637 1 c0 -3 -4 -8 -10 -11 -5 -3 -10 -1 -10 4 0 6 5 11 10 11 6
0 10 -2 10 -4z m160 -6 c0 -5 -2 -10 -4 -10 -3 0 -8 5 -11 10 -3 6 -1 10 4 10
6 0 11 -4 11 -10z m1600 0 c0 -5 -2 -10 -4 -10 -3 0 -8 5 -11 10 -3 6 -1 10 4
10 6 0 11 -4 11 -10z m320 0 c0 -5 -2 -10 -4 -10 -3 0 -8 5 -11 10 -3 6 -1 10
4 10 6 0 11 -4 11 -10z m2404 2 c3 -5 -1 -9 -9 -9 -8 0 -12 4 -9 9 3 4 7 8 9
8 2 0 6 -4 9 -8z m960 0 c3 -5 -1 -9 -9 -9 -8 0 -12 4 -9 9 3 4 7 8 9 8 2 0 6
-4 9 -8z m-1370 -88 c3 -8 2 -12 -4 -9 -6 3 -10 10 -10 16 0 14 7 11 14 -7z
m-83 -21 c13 -16 12 -17 -3 -4 -10 7 -18 15 -18 17 0 8 8 3 21 -13z m-4196
-21 c-3 -3 -11 0 -18 7 -9 10 -8 11 6 5 10 -3 15 -9 12 -12z m2239 -110 c3 -5
-1 -9 -9 -9 -8 0 -12 4 -9 9 3 4 7 8 9 8 2 0 6 -4 9 -8z m-754 -242 c0 -5 -2
-10 -4 -10 -3 0 -8 5 -11 10 -3 6 -1 10 4 10 6 0 11 -4 11 -10z m2877 -5 c0
-8 -4 -12 -9 -9 -5 3 -6 10 -3 15 9 13 12 11 12 -6z m638 5 c3 -5 1 -10 -4
-10 -6 0 -11 5 -11 10 0 6 2 10 4 10 3 0 8 -4 11 -10z m-4718 -85 c0 -8 -4
-12 -9 -9 -5 3 -6 10 -3 15 9 13 12 11 12 -6z m878 -74 c3 -5 2 -12 -3 -15 -5
-3 -9 1 -9 9 0 17 3 19 12 6z m320 0 c3 -5 2 -12 -3 -15 -5 -3 -9 1 -9 9 0 17
3 19 12 6z m3045 5 c0 -3 -4 -8 -10 -11 -5 -3 -10 -1 -10 4 0 6 5 11 10 11 6
0 10 -2 10 -4z m1357 -161 c0 -8 -4 -12 -9 -9 -5 3 -6 10 -3 15 9 13 12 11 12
-6z m-4393 -3 c3 -5 -1 -9 -9 -9 -8 0 -12 4 -9 9 3 4 7 8 9 8 2 0 6 -4 9 -8z
m2796 4 c0 -3 -4 -8 -10 -11 -5 -3 -10 -1 -10 4 0 6 5 11 10 11 6 0 10 -2 10
-4z m555 -5 c3 -5 2 -12 -3 -15 -5 -3 -9 1 -9 9 0 17 3 19 12 6z m-4320 -80
c3 -5 2 -12 -3 -15 -5 -3 -9 1 -9 9 0 17 3 19 12 6z m3855 -77 c0 -8 -19 -13
-24 -6 -3 5 1 9 9 9 8 0 15 -2 15 -3z m307 -9 c0 -8 -4 -12 -9 -9 -5 3 -6 10
-3 15 9 13 12 11 12 -6z m1123 9 c0 -8 -19 -13 -24 -6 -3 5 1 9 9 9 8 0 15 -2
15 -3z m-4480 -320 c0 -8 -19 -13 -24 -6 -3 5 1 9 9 9 8 0 15 -2 15 -3z m3520
-4 c0 -5 -2 -10 -4 -10 -3 0 -8 5 -11 10 -3 6 -1 10 4 10 6 0 11 -4 11 -10z
m955 1 c3 -5 2 -12 -3 -15 -5 -3 -9 1 -9 9 0 17 3 19 12 6z m-4478 -156 c0 -8
-4 -12 -9 -9 -5 3 -6 10 -3 15 9 13 12 11 12 -6z m318 -5 c3 -5 1 -10 -4 -10
-6 0 -11 5 -11 10 0 6 2 10 4 10 3 0 8 -4 11 -10z m4005 0 c0 -5 -2 -10 -4
-10 -3 0 -8 5 -11 10 -3 6 -1 10 4 10 6 0 11 -4 11 -10z m-400 -316 c0 -8 -19
-13 -24 -6 -3 5 1 9 9 9 8 0 15 -2 15 -3z m-879 -161 c13 -16 12 -17 -3 -4
-10 7 -18 15 -18 17 0 8 8 3 21 -13z m799 -3 c0 -5 -2 -10 -4 -10 -3 0 -8 5
-11 10 -3 6 -1 10 4 10 6 0 11 -4 11 -10z m-245 -69 c3 -5 2 -12 -3 -15 -5 -3
-9 1 -9 9 0 17 3 19 12 6z m-235 -91 c0 -5 -2 -10 -4 -10 -3 0 -8 5 -11 10 -3
6 -1 10 4 10 6 0 11 -4 11 -10z m520 -236 c0 -8 -19 -13 -24 -6 -3 5 1 9 9 9
8 0 15 -2 15 -3z m-440 -80 c0 -8 -19 -13 -24 -6 -3 5 1 9 9 9 8 0 15 -2 15
-3z m234 -2 c3 -5 -1 -9 -9 -9 -8 0 -12 4 -9 9 3 4 7 8 9 8 2 0 6 -4 9 -8z
m-1434 -1118 c0 -8 -19 -13 -24 -6 -3 5 1 9 9 9 8 0 15 -2 15 -3z m0 -148 c0
-2 -8 -10 -17 -17 -16 -13 -17 -12 -4 4 13 16 21 21 21 13z"/>
</g>
</svg>
